HIERARCHY
ROOT Pelvis
{
	OFFSET 0.000000 0.000000 0.000000
	CHANNELS 6 Xposition Yposition Zposition Xrotation Yrotation Zrotation
	JOINT LeftUpLeg_virtual
	{
		OFFSET 0.000000 0.000000 0.000000
		CHANNELS 3 Xrotation Yrotation Zrotation
		JOINT LeftUpLeg
		{
			OFFSET 18.735201 -5.666702 -4.541200
			CHANNELS 3 Xrotation Yrotation Zrotation
			JOINT LeftLeg
			{
				OFFSET -0.021200 -31.938179 0.493100
				CHANNELS 3 Xrotation Yrotation Zrotation
				JOINT LeftFoot
				{
					OFFSET 0.021200 -31.938179 -4.336299
					CHANNELS 3 Xrotation Yrotation Zrotation
					JOINT LeftToeBase
					{
						OFFSET 0.943001 -26.722000 15.023500
						CHANNELS 3 Xrotation Yrotation Zrotation
						End Site
						{
							OFFSET 0 0 0
						}
					}
				}
			}
		}
	}
	JOINT RightUpLeg_virtual
	{
		OFFSET 0.000000 0.000000 0.000000
		CHANNELS 3 Xrotation Yrotation Zrotation
		JOINT RightUpLeg
		{
			OFFSET -18.735201 -5.666702 -4.541200
			CHANNELS 3 Xrotation Yrotation Zrotation
			JOINT RightLeg
			{
				OFFSET 0.018946 -31.938133 0.493100
				CHANNELS 3 Xrotation Yrotation Zrotation
				JOINT RightFoot
				{
					OFFSET -0.018946 -31.938126 -4.336299
					CHANNELS 3 Xrotation Yrotation Zrotation
					JOINT RightToeBase
					{
						OFFSET -0.943001 -26.722004 15.023500
						CHANNELS 3 Xrotation Yrotation Zrotation
						End Site
						{
							OFFSET 0 0 0
						}
					}
				}
			}
		}
	}
	JOINT Hips_virtual
	{
		OFFSET 0.000000 0.000000 0.000000
		CHANNELS 3 Xrotation Yrotation Zrotation
		JOINT Hips
		{
			OFFSET -0.000000 -0.000000 -0.000000
			CHANNELS 3 Xrotation Yrotation Zrotation
			JOINT Spine
			{
				OFFSET 0.000000 10.199997 -0.299500
				CHANNELS 3 Xrotation Yrotation Zrotation
				JOINT Spine1
				{
					OFFSET 0.000000 11.900002 -1.516600
					CHANNELS 3 Xrotation Yrotation Zrotation
					JOINT Spine2
					{
						OFFSET 0.000000 13.600006 -2.842500
						CHANNELS 3 Xrotation Yrotation Zrotation
						JOINT Neck_virtual
						{
							OFFSET 0.000000 0.000000 0.000000
							CHANNELS 3 Xrotation Yrotation Zrotation
							JOINT Neck
							{
								OFFSET 0.000000 9.624100 -2.890100
								CHANNELS 3 Xrotation Yrotation Zrotation
								JOINT Head
								{
									OFFSET 0.000000 14.068802 -1.351900
									CHANNELS 3 Xrotation Yrotation Zrotation
									End Site
									{
										OFFSET 0 0 0
									}
								}
							}
						}
						JOINT LeftShoulder_virtual
						{
							OFFSET 0.000000 0.000000 0.000000
							CHANNELS 3 Xrotation Yrotation Zrotation
							JOINT LeftShoulder
							{
								OFFSET 15.263000 10.923401 -0.547700
								CHANNELS 3 Xrotation Yrotation Zrotation
								JOINT LeftArm
								{
									OFFSET 25.438599 -2.830597 -13.032500
									CHANNELS 3 Xrotation Yrotation Zrotation
									JOINT LeftForeArm
									{
										OFFSET 29.960503 0.000000 0.000000
										CHANNELS 3 Xrotation Yrotation Zrotation
										JOINT LeftHand
										{
											OFFSET 27.849251 0.000000 0.000000
											CHANNELS 3 Xrotation Yrotation Zrotation
											End Site
											{
												OFFSET 0 0 0
											}
										}
									}
								}
							}
						}
						JOINT RightShoulder_virtual
						{
							OFFSET 0.000000 0.000000 0.000000
							CHANNELS 3 Xrotation Yrotation Zrotation
							JOINT RightShoulder
							{
								OFFSET -15.263000 10.923401 -0.547700
								CHANNELS 3 Xrotation Yrotation Zrotation
								JOINT RightArm
								{
									OFFSET -25.438599 -2.830597 -13.032500
									CHANNELS 3 Xrotation Yrotation Zrotation
									JOINT RightForeArm
									{
										OFFSET -29.960503 0.000000 0.000000
										CHANNELS 3 Xrotation Yrotation Zrotation
										JOINT RightHand
										{
											OFFSET -27.849251 0.000000 0.000000
											CHANNELS 3 Xrotation Yrotation Zrotation
											End Site
											{
												OFFSET 0 0 0
											}
										}
									}
								}
							}
						}
					}
				}
			}
		}
	}
}
MOTION
Frames: 10
Frame Time: 0.03333333
-8.462814 91.175873 8.732370 0.000000 0.000000 0.000000 -4.058190 1.150175 -1.501765 -20.832111 -1.061806 14.338000 36.256823 -0.964055 -6.233216 -6.600713 0.459699 7.529942 0.000000 0.000000 0.000000 -5.168840 1.880655 -1.213282 -29.342032 0.263168 6.991068 28.219755 -4.020823 7.877116 19.472366 -1.937917 3.246349 0.000000 0.000000 0.000000 -4.412055 1.871610 -1.105255 -0.828276 -0.199790 -0.159151 9.441305 -4.060652 1.259129 5.614242 2.932875 -0.877035 0.000000 0.000000 0.000000 1.421120 3.023780 -0.126971 2.469338 -4.511206 -1.841703 0.000000 0.000000 0.000000 -0.593797 1.826810 0.436015 0.291271 4.155630 -16.687513 -18.888485 -33.008552 -61.450153 -5.716608 -2.113849 -4.360064 0.000000 0.000000 0.000000 2.507992 4.750408 -0.123450 -17.891245 12.263678 16.020286 -0.440971 15.110921 63.914950 10.431366 27.946330 -1.977948 0.000000 0.000000 0.000000 
-8.273071 91.243149 8.977934 0.000000 0.000000 0.000000 -4.000611 1.049618 -1.513540 -20.923424 -0.645979 14.439237 36.226511 -0.993445 -6.443892 -6.451396 0.453470 7.475972 0.000000 0.000000 0.000000 -5.090347 1.860465 -1.375170 -29.525200 0.060854 7.065966 28.548043 -3.877379 7.826247 20.006778 -1.783079 3.228441 0.000000 0.000000 0.000000 -4.380947 1.696707 -1.124860 -0.842532 -0.190251 -0.186761 9.477823 -4.120274 1.394341 5.496975 2.923402 -0.890054 0.000000 0.000000 0.000000 1.388118 3.035977 -0.115111 2.470222 -4.503539 -1.855587 0.000000 0.000000 0.000000 -0.561691 1.834929 0.464176 0.267363 4.216730 -16.786530 -19.039045 -33.062866 -61.452394 -5.634231 -2.031643 -4.460319 0.000000 0.000000 0.000000 2.574235 4.757685 -0.175904 -17.861107 12.222492 15.940743 -0.150629 15.390826 63.798605 10.360134 28.374971 -2.136788 0.000000 0.000000 0.000000 
-7.889390 91.284622 9.336115 0.000000 0.000000 0.000000 -3.818496 0.804817 -1.445318 -20.982158 -0.104775 14.286490 36.127152 -0.847364 -6.684311 -6.578285 0.862308 7.842374 0.000000 0.000000 0.000000 -4.924005 1.725953 -1.472177 -29.150646 -0.329512 6.749590 28.217569 -3.633113 7.641011 20.050797 -1.476144 3.429304 0.000000 0.000000 0.000000 -4.330725 1.472746 -1.055400 -0.853874 -0.173238 -0.201080 9.369975 -4.159037 1.520385 5.398967 2.930492 -0.845342 0.000000 0.000000 0.000000 1.341429 3.071123 -0.080773 2.484732 -4.498488 -1.899851 0.000000 0.000000 0.000000 -0.487598 1.876238 0.546296 0.268503 4.294662 -16.925036 -19.121944 -33.160862 -61.471962 -5.488585 -1.954353 -4.721525 0.000000 0.000000 0.000000 2.700715 4.785049 -0.182166 -17.576812 12.234779 15.625926 0.218081 15.818636 63.538962 10.236276 28.965080 -2.476965 0.000000 0.000000 0.000000 
-7.419421 91.254616 9.808937 0.000000 0.000000 0.000000 -3.586875 0.494550 -1.286614 -21.061418 0.488911 13.911220 36.238149 -0.559286 -6.908699 -7.191621 1.638639 8.641955 0.000000 0.000000 0.000000 -4.679416 1.553121 -1.430189 -28.386611 -0.893454 6.109192 27.345642 -3.413438 7.432022 19.325559 -1.150111 3.806392 0.000000 0.000000 0.000000 -4.262010 1.337301 -0.901951 -0.861277 -0.161637 -0.194189 9.111157 -4.180871 1.554639 5.315348 2.938191 -0.741516 0.000000 0.000000 0.000000 1.291965 3.114781 -0.015972 2.515574 -4.494214 -1.961401 0.000000 0.000000 0.000000 -0.354320 1.933636 0.675176 0.297278 4.389985 -17.094188 -19.042339 -33.293723 -61.448405 -5.298655 -1.849581 -5.134037 0.000000 0.000000 0.000000 2.851934 4.818340 -0.131054 -17.047696 12.301651 15.098741 0.524666 16.323531 63.202602 10.083417 29.514733 -2.958131 0.000000 0.000000 0.000000 
-6.913592 91.138672 10.340014 0.000000 0.000000 0.000000 -3.316457 0.210800 -1.064138 -21.195055 1.014266 13.350377 36.677713 -0.244555 -7.108484 -8.278946 2.619620 9.684015 0.000000 0.000000 0.000000 -4.363500 1.403997 -1.242541 -27.525686 -1.467480 5.270753 26.308780 -3.219395 7.218047 18.415249 -0.796183 4.213271 0.000000 0.000000 0.000000 -4.137146 1.287475 -0.713363 -0.865974 -0.149518 -0.176049 8.700522 -4.189959 1.465405 5.235107 2.932780 -0.603403 0.000000 0.000000 0.000000 1.246475 3.145356 0.079584 2.553259 -4.486425 -2.022502 0.000000 0.000000 0.000000 -0.197234 1.979282 0.822122 0.347747 4.481729 -17.246091 -18.755262 -33.432676 -61.378703 -5.083973 -1.714284 -5.666843 0.000000 0.000000 0.000000 2.956863 4.834469 -0.019870 -16.294159 12.410726 14.381972 0.577059 16.866594 62.889049 9.918042 29.752816 -3.530550 0.000000 0.000000 0.000000 
-6.423730 90.987457 10.844933 0.000000 0.000000 0.000000 -3.034722 0.030936 -0.847591 -21.315035 1.374233 12.684945 37.373286 0.019461 -7.302431 -9.618219 3.672903 10.741691 0.000000 0.000000 0.000000 -4.004564 1.313249 -0.978313 -26.755359 -1.910952 4.460706 25.509418 -3.046334 6.945302 17.949160 -0.405897 4.469789 0.000000 0.000000 0.000000 -3.932458 1.350800 -0.547954 -0.866819 -0.136117 -0.165535 8.166061 -4.250413 1.280486 5.151625 2.883711 -0.450516 0.000000 0.000000 0.000000 1.196463 3.140905 0.204293 2.592665 -4.471248 -2.059314 0.000000 0.000000 0.000000 -0.071266 1.981297 0.949320 0.394116 4.517343 -17.357075 -18.287277 -33.548025 -61.247850 -4.868088 -1.604992 -6.291484 0.000000 0.000000 0.000000 2.945922 4.809747 0.145702 -15.352486 12.513110 13.536376 0.198715 17.443728 62.787190 9.751225 29.393880 -4.134408 0.000000 0.000000 0.000000 
-5.933015 90.862022 11.345850 0.000000 0.000000 0.000000 -2.707802 -0.003293 -0.691924 -21.258467 1.515408 11.975366 38.041036 0.219977 -7.489217 -11.005421 4.696357 11.637337 0.000000 0.000000 0.000000 -3.599111 1.312574 -0.709814 -26.153057 -1.946152 3.971853 25.044835 -2.963989 6.532221 17.622564 -0.190577 4.387122 0.000000 0.000000 0.000000 -3.649028 1.515035 -0.440449 -0.864689 -0.130714 -0.169435 7.615277 -4.412466 1.051142 5.036187 2.777173 -0.275646 0.000000 0.000000 0.000000 1.175265 3.085608 0.356759 2.629921 -4.444095 -2.055739 0.000000 0.000000 0.000000 -0.018239 1.927255 1.038324 0.442577 4.476843 -17.407376 -17.727022 -33.609384 -61.044693 -4.647959 -1.547568 -6.987605 0.000000 0.000000 0.000000 2.750363 4.723101 0.345592 -14.285985 12.561782 12.657322 -0.650990 18.090792 62.946661 9.584663 28.323767 -4.708609 0.000000 0.000000 0.000000 
-5.433686 90.837669 11.770214 0.000000 0.000000 0.000000 -2.356245 0.127439 -0.615130 -20.908845 1.445492 11.260908 38.256419 0.391645 -7.682402 -12.204849 5.670852 12.290130 0.000000 0.000000 0.000000 -3.167064 1.418002 -0.506444 -25.661885 -1.310826 3.932315 24.721359 -3.107919 5.982324 16.785135 -0.224259 3.900794 0.000000 0.000000 0.000000 -3.268730 1.683808 -0.396132 -0.859824 -0.137607 -0.178054 7.160419 -4.684872 0.827999 4.851463 2.633751 -0.079801 0.000000 0.000000 0.000000 1.190709 2.982454 0.530603 2.658070 -4.396370 -2.005574 0.000000 0.000000 0.000000 -0.073821 1.827224 1.094045 0.509851 4.407989 -17.358325 -17.238057 -33.536352 -60.789558 -4.416131 -1.454549 -7.698123 0.000000 0.000000 0.000000 2.348545 4.579974 0.568406 -13.168869 12.526566 11.807965 -1.884626 18.838601 63.350073 9.407437 26.659500 -5.177756 0.000000 0.000000 0.000000 
-4.943693 90.925072 12.102400 0.000000 0.000000 0.000000 -2.084265 0.398606 -0.607004 -20.199227 1.296216 10.566676 37.723107 0.619564 -7.873210 -13.095984 6.604042 12.719091 0.000000 0.000000 0.000000 -2.785545 1.583536 -0.375250 -25.553679 -0.238219 4.161361 24.932320 -3.556093 5.401824 15.322903 -0.465395 3.451811 0.000000 0.000000 0.000000 -2.879348 1.790892 -0.369621 -0.845453 -0.147378 -0.178355 6.971630 -5.029520 0.570544 4.578028 2.464968 0.137042 0.000000 0.000000 0.000000 1.196168 2.845357 0.727646 2.673061 -4.329932 -1.911983 0.000000 0.000000 0.000000 -0.246020 1.701953 1.135241 0.575032 4.350064 -17.198293 -16.935785 -33.290475 -60.526316 -4.160730 -1.159287 -8.375321 0.000000 0.000000 0.000000 1.804334 4.394327 0.807045 -12.086992 12.380599 11.032681 -3.258067 19.659755 63.864188 9.256378 24.707837 -5.455963 0.000000 0.000000 0.000000 
-4.473883 91.151459 12.343884 0.000000 0.000000 0.000000 -1.919533 0.722660 -0.631610 -19.151331 1.113744 9.861286 36.471871 0.926724 -8.015846 -13.500111 7.511365 12.934592 0.000000 0.000000 0.000000 -2.494137 1.776616 -0.298753 -26.447073 0.844157 4.252559 26.438086 -4.229793 4.968400 13.600908 -0.696347 3.485673 0.000000 0.000000 0.000000 -2.554556 1.815926 -0.323781 -0.829087 -0.157452 -0.169144 7.156934 -5.379992 0.234361 4.241866 2.271434 0.364466 0.000000 0.000000 0.000000 1.133870 2.688234 0.961071 2.667617 -4.254276 -1.792723 0.000000 0.000000 0.000000 -0.495540 1.563544 1.187849 0.620551 4.268147 -16.951143 -16.841971 -32.926095 -60.316601 -3.864281 -0.521693 -8.989188 0.000000 0.000000 0.000000 1.240996 4.176903 1.038513 -11.097842 12.051999 10.334291 -4.523082 20.504742 64.294019 9.162074 22.885116 -5.483294 0.000000 0.000000 0.000000 
